<?xml version="1.0" encoding="UTF-8"?>
<svg version="1.1" xmlns="http://www.w3.org/2000/svg" width="512" height="512">
<path d="M0 0 C8.83680008 6.14733919 13.66886479 14.74625021 16.23828125 25.0546875 C16.65522856 27.60402248 16.72699034 29.98411843 16.6484375 32.5625 C17.5765625 32.48 18.5046875 32.3975 19.4609375 32.3125 C28.7520133 32.36880955 37.19005269 37.17722898 43.6484375 43.5625 C52.5793485 54.05718919 54.71224623 64.0266528 53.85546875 77.55761719 C52.85234972 87.27178405 47.61113565 95.33927674 40.2890625 101.5703125 C30.22533031 109.03997708 21.150404 110.73127628 8.6484375 109.5625 C0.61894796 107.76803075 -4.30682636 104.25899076 -11.3515625 99.5625 C-18.9415625 107.1525 -26.5315625 114.7425 -34.3515625 122.5625 C-32.88239383 126.23542168 -31.36322253 129.38986964 -29.38208008 132.77441406 C-7.53623991 170.12420039 2.28128632 217.9464932 -8.3515625 260.5625 C-8.56087402 261.4076416 -8.77018555 262.2527832 -8.98583984 263.12353516 C-15.30161133 287.91729624 -25.53517941 311.32267319 -41.3515625 331.5625 C-42.11339844 332.54605469 -42.87523437 333.52960938 -43.66015625 334.54296875 C-48.50443704 340.62980336 -53.73462328 346.18457947 -59.3515625 351.5625 C-57.82258674 355.17942773 -55.67340617 357.4828522 -52.90185547 360.23925781 C-51.98105194 361.15991028 -51.06024841 362.08056274 -50.11154175 363.02911377 C-49.10571785 364.0247253 -48.0997847 365.02022648 -47.09375 366.015625 C-46.06484101 367.04080193 -45.03637413 368.06642275 -44.0083313 369.09246826 C-41.30674669 371.78643164 -38.59920909 374.47433368 -35.89038086 377.16101074 C-33.12511761 379.90578304 -30.36553617 382.65625472 -27.60546875 385.40625 C-22.19303976 390.79725573 -16.77430812 396.18186964 -11.3515625 401.5625 C-9.06198633 400.42185247 -6.78266678 399.26748805 -4.51171875 398.08984375 C-2.97837891 397.30287109 -2.97837891 397.30287109 -1.4140625 396.5 C-0.39441406 395.97277344 0.62523437 395.44554687 1.67578125 394.90234375 C10.39018162 390.9745654 21.31904105 391.41293387 30.2421875 394.52734375 C40.49042685 398.93608308 47.60946626 404.87335147 52.5859375 414.9375 C56.11795513 424.15349302 56.44085328 435.77499558 53.0859375 445.125 C47.98359231 455.43598924 40.56658546 462.64255305 29.671875 466.66015625 C25.22080653 467.94988633 21.29560272 468.7040803 16.6484375 468.5625 C16.7309375 469.490625 16.8134375 470.41875 16.8984375 471.375 C16.84212795 480.6660758 12.03370852 489.10411519 5.6484375 495.5625 C-4.84625169 504.493411 -14.8157153 506.62630873 -28.34667969 505.76953125 C-38.06084655 504.76641222 -46.12833924 499.52519815 -52.359375 492.203125 C-59.82947141 482.138811 -61.51914843 473.06485267 -60.3515625 460.5625 C-58.84758476 453.75636346 -56.03981113 448.49530533 -51.5234375 443.21875 C-50.06276754 441.49248728 -50.06276754 441.49248728 -50.3515625 438.5625 C-51.65813937 436.81857753 -51.65813937 436.81857753 -53.47265625 435.10083008 C-54.15336182 434.4203511 -54.83406738 433.73987213 -55.53540039 433.03877258 C-56.27910889 432.31054794 -57.02281738 431.5823233 -57.7890625 430.83203125 C-58.54372803 430.08161057 -59.29839355 429.33118988 -60.07592773 428.55802917 C-62.49420921 426.15657604 -64.92270021 423.76574651 -67.3515625 421.375 C-68.99026508 419.75133881 -70.6282949 418.12699833 -72.265625 416.50195312 C-76.28648995 412.51421262 -80.31579215 408.53515181 -84.3515625 404.5625 C-84.52751953 405.69324951 -84.70347656 406.82399902 -84.88476562 407.98901367 C-87.40575453 423.58346193 -87.40575453 423.58346193 -90.8515625 429.875 C-91.36432739 430.8484436 -91.36432739 430.8484436 -91.88745117 431.84155273 C-100.08163023 446.62887476 -113.34051011 456.36814886 -129.3515625 461.5625 C-136.80169828 463.46665764 -143.95168685 463.8593515 -151.61572266 463.85302734 C-152.80092499 463.85974457 -153.98612732 463.86646179 -155.20724487 463.87338257 C-158.43080539 463.88902814 -161.65421049 463.89573197 -164.87780428 463.89701414 C-166.90117628 463.89844496 -168.924522 463.90273207 -170.94788742 463.90800858 C-178.03379759 463.92646492 -185.11963299 463.93468512 -192.20556641 463.93310547 C-198.76642467 463.93190673 -205.32695257 463.95296758 -211.88772738 463.9845928 C-217.55608816 464.01092313 -223.22434219 464.02146575 -228.8927635 464.02019465 C-232.26243779 464.0196897 -235.6315866 464.02700956 -239.00123978 464.04655075 C-262.32654163 464.16913857 -282.38371812 462.62797423 -300.23730469 445.89672852 C-304.87628154 441.30382904 -308.28671138 436.29618215 -311.3515625 430.5625 C-311.74859375 429.84835937 -312.145625 429.13421875 -312.5546875 428.3984375 C-316.1409803 421.25261528 -316.69898009 414.82541205 -318.3515625 406.5625 C-329.5715625 417.7825 -340.7915625 429.0025 -352.3515625 440.5625 C-351.2080513 442.8495224 -350.056014 445.13243039 -348.87890625 447.40234375 C-348.35425781 448.42457031 -347.82960938 449.44679688 -347.2890625 450.5 C-346.76183594 451.51964844 -346.23460937 452.53929687 -345.69140625 453.58984375 C-341.7636279 462.30424412 -342.20199637 473.23310355 -345.31640625 482.15625 C-349.72514558 492.40448935 -355.66241397 499.52352876 -365.7265625 504.5 C-374.94255552 508.03201763 -386.56405808 508.35491578 -395.9140625 505 C-406.22505174 499.89765481 -413.43161555 492.48064796 -417.44921875 481.5859375 C-418.73894883 477.13486903 -419.4931428 473.20966522 -419.3515625 468.5625 C-420.2796875 468.645 -421.2078125 468.7275 -422.1640625 468.8125 C-431.4551383 468.75619045 -439.89317769 463.94777102 -446.3515625 457.5625 C-455.2824735 447.06781081 -457.41537123 437.0983472 -456.55859375 423.56738281 C-455.55547472 413.85321595 -450.31426065 405.78572326 -442.9921875 399.5546875 C-432.9278735 392.08459109 -423.85391517 390.39491407 -411.3515625 391.5625 C-404.54542596 393.06647774 -399.28436783 395.87425137 -394.0078125 400.390625 C-392.28154978 401.85129496 -392.28154978 401.85129496 -389.3515625 401.5625 C-387.07734734 399.72848403 -387.07734734 399.72848403 -384.6965332 397.24804688 C-384.23767731 396.78962906 -383.77882141 396.33121124 -383.30606079 395.85890198 C-381.78927088 394.34001996 -380.28338567 392.81078368 -378.77734375 391.28125 C-377.72853474 390.22684654 -376.67906196 389.17310295 -375.62895203 388.11999512 C-372.86534298 385.34492545 -370.11086031 382.560965 -367.3581543 379.77508545 C-364.54824128 376.93449785 -361.72982857 374.10237191 -358.91210938 371.26953125 C-353.38355175 365.70878799 -347.86460264 360.13862778 -342.3515625 354.5625 C-344.09026706 350.81774908 -346.19405948 348.64283615 -349.2265625 345.8125 C-376.85346228 319.04231968 -396.46847816 276.12588375 -397.51269531 237.55932617 C-397.53219521 236.15810613 -397.54597375 234.75679737 -397.5546875 233.35546875 C-397.56174713 232.5967598 -397.56880676 231.83805084 -397.57608032 231.05635071 C-397.803747 199.40845832 -397.803747 199.40845832 -394.3515625 185.5625 C-394.15288574 184.74007812 -393.95420898 183.91765625 -393.74951172 183.0703125 C-389.1274619 164.40207833 -381.73168938 147.30069048 -372.3515625 130.5625 C-370.7015625 127.5925 -369.0515625 124.6225 -367.3515625 121.5625 C-374.9415625 113.9725 -382.5315625 106.3825 -390.3515625 98.5625 C-393.15330036 99.96336893 -395.43605712 101.26488888 -397.9765625 103 C-407.2382054 108.76507422 -417.35201491 109.95171232 -428.05078125 108.09375 C-439.23835727 105.1431805 -447.92615041 98.88577077 -453.890625 89.015625 C-458.57234648 79.54756256 -458.909891 68.73997772 -456.6875 58.50390625 C-452.86835103 47.86010411 -445.3683059 40.51716262 -435.3515625 35.5625 C-429.99474076 33.58708411 -425.07525175 32.38812237 -419.3515625 32.5625 C-419.4340625 31.634375 -419.5165625 30.70625 -419.6015625 29.75 C-419.54525295 20.4589242 -414.73683352 12.02088481 -408.3515625 5.5625 C-397.85687331 -3.368411 -387.8874097 -5.50130873 -374.35644531 -4.64453125 C-364.64227845 -3.64141222 -356.57478576 1.59980185 -350.34375 8.921875 C-342.87408542 18.98560719 -341.18278622 28.0605335 -342.3515625 40.5625 C-344.14603175 48.59198954 -347.65507174 53.51776386 -352.3515625 60.5625 C-345.4215625 67.4925 -338.4915625 74.4225 -331.3515625 81.5625 C-326.99511949 79.8199228 -324.76426745 78.47682338 -321.2265625 75.625 C-279.92749145 44.0792151 -224.96433212 32.60929219 -173.9765625 38.6875 C-136.70121251 43.78150811 -101.48637146 58.71775121 -72.3515625 82.5625 C-68.78391965 81.04873919 -66.51449963 78.95736871 -63.8046875 76.2109375 C-62.96035156 75.36015625 -62.11601562 74.509375 -61.24609375 73.6328125 C-59.93705078 72.29863281 -59.93705078 72.29863281 -58.6015625 70.9375 C-57.71339844 70.0403125 -56.82523437 69.143125 -55.91015625 68.21875 C-53.71939281 66.00442996 -51.53343487 63.78557565 -49.3515625 61.5625 C-50.67431047 58.86539144 -52.09528875 56.41748025 -53.7890625 53.9375 C-59.6951231 44.43188767 -61.15939224 33.46792496 -58.66015625 22.5390625 C-54.81519082 11.05242938 -48.45581417 3.49806228 -38.18359375 -2.7578125 C-26.21255525 -8.65061287 -11.02833154 -6.74157144 0 0 Z M-46.0390625 16.9375 C-50.35559752 23.24941441 -51.19244653 30.09282886 -50.3515625 37.5625 C-48.63197618 45.64109345 -45.02085021 50.62731073 -39.08203125 56.2734375 C-37.3515625 58.5625 -37.3515625 58.5625 -37.38183594 60.81958008 C-38.73588793 64.64958364 -41.27417274 66.98060072 -44.13671875 69.73828125 C-44.71240097 70.30830368 -45.28808319 70.87832611 -45.88121033 71.46562195 C-47.71629741 73.27837563 -49.56481766 75.07670252 -51.4140625 76.875 C-52.66302209 78.10389078 -53.91108004 79.33369864 -55.15820312 80.56445312 C-58.21230819 83.57453114 -61.2785343 86.57174832 -64.3515625 89.5625 C-61.20874963 93.29454959 -58.08059131 96.94843342 -54.5390625 100.3125 C-49.72033165 105.04734579 -45.54804789 110.27803692 -41.3515625 115.5625 C-37.05978206 112.05587334 -33.13193699 108.37531007 -29.28515625 104.3828125 C-28.38732422 103.4546875 -27.48949219 102.5265625 -26.56445312 101.5703125 C-25.165904 100.12215893 -23.77269459 98.67013395 -22.3918457 97.20507812 C-21.03714162 95.77160941 -19.66137528 94.35813836 -18.28515625 92.9453125 C-17.0794397 91.68291748 -17.0794397 91.68291748 -15.84936523 90.39501953 C-13.3515625 88.5625 -13.3515625 88.5625 -10.17602539 88.12451172 C-6.62376085 88.6753599 -6.06646983 90.0604678 -4.00390625 92.828125 C1.09301971 98.17808984 8.50366922 100.92485031 15.7734375 101.1875 C23.51280805 100.7614796 31.16207568 98.20126076 36.6484375 92.5625 C43.48385325 83.60279464 45.73558234 75.8582 44.6484375 64.5625 C42.25001809 55.41388989 37.81050865 50.08268545 30.0625 44.89453125 C25.07892743 42.1446959 20.41533593 41.28292235 14.7734375 40.9375 C13.62101562 40.86273438 12.46859375 40.78796875 11.28125 40.7109375 C10.41242188 40.66195312 9.54359375 40.61296875 8.6484375 40.5625 C8.56207031 39.52351563 8.47570312 38.48453125 8.38671875 37.4140625 C7.31931162 26.23112667 5.26020858 16.90276588 -3.42578125 9.03515625 C-18.19329301 -2.25764686 -35.44624759 3.22194775 -46.0390625 16.9375 Z M-402.3515625 12.5625 C-407.67782439 19.54404128 -410.43360258 25.56915462 -410.9765625 34.4375 C-411.05132812 35.58992188 -411.12609375 36.74234375 -411.203125 37.9296875 C-411.25210938 38.79851563 -411.30109375 39.66734375 -411.3515625 40.5625 C-412.39054687 40.64886719 -413.42953125 40.73523437 -414.5 40.82421875 C-425.68293583 41.89162588 -435.01129662 43.95072892 -442.87890625 52.63671875 C-448.68656377 60.23134782 -449.58770941 68.1635209 -448.3515625 77.5625 C-445.44445504 86.54593864 -439.3760606 92.81366095 -431.3515625 97.5625 C-422.82298979 100.94174579 -414.53547233 100.33093668 -406.09375 97.0546875 C-401.95558357 94.80286474 -398.86976319 91.68950374 -395.640625 88.29296875 C-393.3515625 86.5625 -393.3515625 86.5625 -391.1081543 86.57910156 C-387.18943773 87.9770814 -384.78454537 90.63553533 -381.95703125 93.56640625 C-381.36481277 94.16428452 -380.7725943 94.76216278 -380.16242981 95.37815857 C-378.27835781 97.28457017 -376.40869096 99.20443191 -374.5390625 101.125 C-373.26199396 102.42213653 -371.98400911 103.71837162 -370.70507812 105.01367188 C-367.57652198 108.18626337 -364.46081061 111.37098828 -361.3515625 114.5625 C-358.68165791 111.90832386 -356.02083564 109.2590059 -353.484375 106.4765625 C-352.99420898 105.94119873 -352.50404297 105.40583496 -351.99902344 104.85424805 C-351.49661133 104.30422119 -350.99419922 103.75419434 -350.4765625 103.1875 C-346.20535756 98.53272875 -341.87097086 93.97919453 -337.3515625 89.5625 C-340.79756104 85.3551762 -344.3913259 81.48599932 -348.3125 77.71484375 C-349.19550781 76.86212891 -350.07851563 76.00941406 -350.98828125 75.13085938 C-352.82796659 73.36334429 -354.67711687 71.60563278 -356.53515625 69.85742188 C-357.84806641 68.5802832 -357.84806641 68.5802832 -359.1875 67.27734375 C-359.98720215 66.51542725 -360.7869043 65.75351074 -361.61083984 64.96850586 C-363.80927905 61.9298497 -363.90062174 60.23500501 -363.3515625 56.5625 C-361.9467198 55.42524639 -360.53521518 54.29490069 -359.0859375 53.21484375 C-353.73597266 48.11791779 -350.98921219 40.70726828 -350.7265625 33.4375 C-351.1525829 25.69812945 -353.71280174 18.04886182 -359.3515625 12.5625 C-372.06758229 2.86136827 -390.14251257 0.01430979 -402.3515625 12.5625 Z M-338.3515625 102.5625 C-339.03863281 103.18382812 -339.72570312 103.80515625 -340.43359375 104.4453125 C-367.83963245 130.17814042 -387.10903511 172.43571617 -388.47583008 209.97558594 C-389.00525569 234.4473586 -389.00525569 234.4473586 -385.3515625 258.5625 C-385.15288574 259.39604004 -384.95420898 260.22958008 -384.74951172 261.08837891 C-381.60480703 273.87213346 -377.16462684 285.76441998 -371.3515625 297.5625 C-371.02929688 298.22475586 -370.70703125 298.88701172 -370.375 299.56933594 C-365.60970139 309.259745 -359.89791259 317.98744263 -353.3515625 326.5625 C-352.66707031 327.47257812 -351.98257813 328.38265625 -351.27734375 329.3203125 C-340.28725679 343.34575681 -326.62872954 357.20456642 -311.3515625 366.5625 C-310.6915625 366.5625 -310.0315625 366.5625 -309.3515625 366.5625 C-309.3422168 367.85760498 -309.33287109 369.15270996 -309.32324219 370.48706055 C-309.28299132 375.34986189 -309.21713924 380.21205364 -309.14404297 385.07446289 C-309.11603509 387.16813247 -309.09472155 389.26190383 -309.08056641 391.35571289 C-308.94765715 409.91427603 -307.20390447 424.80233588 -294.2890625 439.25 C-287.32473292 445.81772767 -275.76569123 452.94687677 -266.0390625 452.6875 C-265.15605469 452.66945313 -264.27304687 452.65140625 -263.36328125 452.6328125 C-262.69941406 452.60960937 -262.03554688 452.58640625 -261.3515625 452.5625 C-261.3515625 453.2225 -261.3515625 453.8825 -261.3515625 454.5625 C-260.0315625 454.5625 -258.7115625 454.5625 -257.3515625 454.5625 C-257.34125504 453.80050797 -257.33094757 453.03851593 -257.32032776 452.25343323 C-257.2225184 445.0869026 -257.1200281 437.92046173 -257.01222324 430.75407505 C-256.95696085 427.0693981 -256.90353571 423.38471327 -256.85424805 419.69995117 C-256.80665318 416.14672159 -256.75431243 412.59359125 -256.69862175 409.04047966 C-256.678176 407.68207189 -256.65946665 406.32363688 -256.64248848 404.96518135 C-256.61849373 403.06860295 -256.58785918 401.17211201 -256.55688477 399.27563477 C-256.54134048 398.19419693 -256.5257962 397.11275909 -256.50978088 395.99855042 C-256.3515625 393.5625 -256.3515625 393.5625 -255.3515625 392.5625 C-252.8515625 392.4375 -252.8515625 392.4375 -250.3515625 392.5625 C-248.58402715 394.33003535 -249.18070189 396.87808806 -249.14624023 399.27563477 C-249.12629501 400.4968251 -249.10634979 401.71801544 -249.08580017 402.97621155 C-249.06881459 404.31877513 -249.05193583 405.66134007 -249.03515625 407.00390625 C-249.01459303 408.37011861 -248.99359673 409.73632451 -248.97218323 411.1025238 C-248.91689715 414.70444524 -248.86751687 418.30642471 -248.81933594 421.90844727 C-248.76916847 425.58159572 -248.71345765 429.25465955 -248.65820312 432.92773438 C-248.55054168 440.13925132 -248.44911463 447.35083847 -248.3515625 454.5625 C-248.0215625 453.9025 -247.6915625 453.2425 -247.3515625 452.5625 C-245.3715625 452.5625 -243.3915625 452.5625 -241.3515625 452.5625 C-241.3515625 453.2225 -241.3515625 453.8825 -241.3515625 454.5625 C-236.7315625 454.5625 -232.1115625 454.5625 -227.3515625 454.5625 C-227.3515625 453.9025 -227.3515625 453.2425 -227.3515625 452.5625 C-225.3715625 452.5625 -223.3915625 452.5625 -221.3515625 452.5625 C-221.3515625 453.2225 -221.3515625 453.8825 -221.3515625 454.5625 C-219.03912458 454.58935412 -216.7265998 454.60882841 -214.4140625 454.625 C-212.48240234 454.64240234 -212.48240234 454.64240234 -210.51171875 454.66015625 C-207.48857847 454.92782549 -207.48857847 454.92782549 -206.3515625 453.5625 C-206.30031154 450.86862133 -206.31214978 448.19328885 -206.3515625 445.5 C-206.44372576 434.07699245 -206.15163292 422.66790587 -205.8515625 411.25 C-205.82755371 410.33040497 -205.80354492 409.41080994 -205.77880859 408.46334839 C-205.63990767 403.16296714 -205.49729371 397.86269767 -205.3515625 392.5625 C-202.7115625 392.5625 -200.0715625 392.5625 -197.3515625 392.5625 C-197.0215625 409.0625 -196.6915625 425.5625 -196.3515625 442.5625 C-194.7015625 442.5625 -193.0515625 442.5625 -191.3515625 442.5625 C-191.3515625 444.2125 -191.3515625 445.8625 -191.3515625 447.5625 C-193.0015625 447.8925 -194.6515625 448.2225 -196.3515625 448.5625 C-196.3515625 450.5425 -196.3515625 452.5225 -196.3515625 454.5625 C-194.93533034 454.61697047 -193.51848059 454.65550508 -192.1015625 454.6875 C-190.91820312 454.72230469 -190.91820312 454.72230469 -189.7109375 454.7578125 C-187.14424309 454.5453378 -185.5599558 453.84904105 -183.3515625 452.5625 C-182.3615625 453.2225 -181.3715625 453.8825 -180.3515625 454.5625 C-177.28543851 454.88105376 -177.28543851 454.88105376 -173.9140625 454.8125 C-172.78097656 454.81765625 -171.64789063 454.8228125 -170.48046875 454.828125 C-167.51630559 454.57648568 -165.84842579 454.10846941 -163.3515625 452.5625 C-162.3615625 453.2225 -161.3715625 453.8825 -160.3515625 454.5625 C-157.22634417 454.72949232 -157.22634417 454.72949232 -154.3515625 454.5625 C-154.3515625 452.5825 -154.3515625 450.6025 -154.3515625 448.5625 C-155.0115625 448.5625 -155.6715625 448.5625 -156.3515625 448.5625 C-156.4765625 446.1875 -156.4765625 446.1875 -156.3515625 443.5625 C-155.6915625 442.9025 -155.0315625 442.2425 -154.3515625 441.5625 C-154.02809348 439.42883437 -154.02809348 439.42883437 -154.04858398 436.94506836 C-154.02362099 435.50864235 -154.02362099 435.50864235 -153.99815369 434.04319763 C-153.98973953 433.00671585 -153.98132538 431.97023407 -153.97265625 430.90234375 C-153.94716454 429.31203087 -153.94716454 429.31203087 -153.92115784 427.68959045 C-153.86788706 424.29312125 -153.82766369 420.8966652 -153.7890625 417.5 C-153.7452094 414.09982699 -153.69856594 410.69975153 -153.64625549 407.29969788 C-153.6141744 405.18082462 -153.58732368 403.0618649 -153.56602478 400.94285583 C-153.55253494 399.98839066 -153.5390451 399.03392548 -153.52514648 398.05053711 C-153.51563461 397.20607529 -153.50612274 396.36161346 -153.49632263 395.49156189 C-153.3515625 393.5625 -153.3515625 393.5625 -152.3515625 392.5625 C-149.8515625 392.4375 -149.8515625 392.4375 -147.3515625 392.5625 C-145.26951892 394.64454358 -146.09334958 399.0963556 -146.03515625 401.97265625 C-146.01437515 402.81469101 -145.99359406 403.65672577 -145.97218323 404.52427673 C-145.90659438 407.22443179 -145.84775974 409.92468717 -145.7890625 412.625 C-145.74588613 414.45118241 -145.70227214 416.27735454 -145.65820312 418.10351562 C-145.55090356 422.58973992 -145.44966284 427.0760655 -145.3515625 431.5625 C-144.0315625 432.2225 -142.7115625 432.8825 -141.3515625 433.5625 C-141.3515625 434.8825 -141.3515625 436.2025 -141.3515625 437.5625 C-142.6715625 438.2225 -143.9915625 438.8825 -145.3515625 439.5625 C-145.3515625 443.8525 -145.3515625 448.1425 -145.3515625 452.5625 C-134.62598031 454.42781864 -126.34235179 451.49259507 -117.3515625 445.5625 C-116.6915625 444.5725 -116.0315625 443.5825 -115.3515625 442.5625 C-113.69083401 441.88117549 -112.0237955 441.21507873 -110.3515625 440.5625 C-108.26087301 438.9198154 -107.46914868 438.11683483 -106.9140625 435.5 C-106.7284375 434.860625 -106.5428125 434.22125 -106.3515625 433.5625 C-105.74441406 433.3046875 -105.13726562 433.046875 -104.51171875 432.78125 C-99.26037502 429.81846656 -97.02185991 421.92602696 -95.453125 416.39453125 C-94.652037 412.5059577 -94.652037 412.5059577 -94.3515625 408.5625 C-95.0115625 407.9025 -95.6715625 407.2425 -96.3515625 406.5625 C-95.81584821 403.02678571 -95.81584821 403.02678571 -94.3515625 401.5625 C-94.22618509 399.41942104 -94.17581886 397.27171114 -94.1640625 395.125 C-94.14988281 393.95066406 -94.13570313 392.77632813 -94.12109375 391.56640625 C-94.03256994 388.44753098 -94.03256994 388.44753098 -96.3515625 386.5625 C-95.81584821 383.02678571 -95.81584821 383.02678571 -94.3515625 381.5625 C-94.22520827 379.48206287 -94.17574545 377.39673788 -94.1640625 375.3125 C-94.14988281 374.17296875 -94.13570313 373.0334375 -94.12109375 371.859375 C-94.34563946 368.64722955 -94.97859345 366.44953374 -96.3515625 363.5625 C-94.7015625 363.2325 -93.0515625 362.9025 -91.3515625 362.5625 C-91.0215625 363.2225 -90.6915625 363.8825 -90.3515625 364.5625 C-86.98564384 363.11996343 -84.84109171 361.22985273 -82.3515625 358.5625 C-83.6715625 358.2325 -84.9915625 357.9025 -86.3515625 357.5625 C-86.0215625 355.9125 -85.6915625 354.2625 -85.3515625 352.5625 C-83.7015625 352.5625 -82.0515625 352.5625 -80.3515625 352.5625 C-80.3515625 354.2125 -80.3515625 355.8625 -80.3515625 357.5625 C-74.43529919 353.38090998 -69.25298722 348.77236214 -64.1640625 343.625 C-63.47892578 342.94759766 -62.79378906 342.27019531 -62.08789062 341.57226562 C-58.0184119 337.48711999 -54.56644452 333.35048933 -51.3515625 328.5625 C-52.6715625 328.2325 -53.9915625 327.9025 -55.3515625 327.5625 C-55.3515625 325.9125 -55.3515625 324.2625 -55.3515625 322.5625 C-53.7015625 322.2325 -52.0515625 321.9025 -50.3515625 321.5625 C-49.6915625 322.8825 -49.0315625 324.2025 -48.3515625 325.5625 C-47.0315625 323.2525 -45.7115625 320.9425 -44.3515625 318.5625 C-45.0115625 318.5625 -45.6715625 318.5625 -46.3515625 318.5625 C-46.3515625 316.9125 -46.3515625 315.2625 -46.3515625 313.5625 C-41.6015625 312.5625 -41.6015625 312.5625 -39.3515625 312.5625 C-37.53712743 310.02229091 -36.43808736 308.01675553 -35.8515625 304.9375 C-35.3515625 302.5625 -35.3515625 302.5625 -34.04296875 301.37109375 C-31.55766743 298.71360065 -30.27087252 295.52910218 -28.7890625 292.25 C-28.48548828 291.59837891 -28.18191406 290.94675781 -27.86914062 290.27539062 C-26.10516672 286.43615329 -24.61080425 282.6033504 -23.3515625 278.5625 C-24.3415625 277.9025 -25.3315625 277.2425 -26.3515625 276.5625 C-26.0215625 275.2425 -25.6915625 273.9225 -25.3515625 272.5625 C-24.73539062 272.5109375 -24.11921875 272.459375 -23.484375 272.40625 C-21.11749404 271.74173733 -21.11749404 271.74173733 -20.15625 269.21875 C-17.7819411 261.15807106 -16.54196342 253.36938528 -15.74609375 245.01953125 C-15.3515625 241.5625 -15.3515625 241.5625 -14.3515625 239.5625 C-13.95011302 233.32602901 -13.7702635 227.37042276 -16.3515625 221.5625 C-15.6915625 221.5625 -15.0315625 221.5625 -14.3515625 221.5625 C-14.32470838 219.25006208 -14.30523409 216.9375373 -14.2890625 214.625 C-14.27166016 212.69333984 -14.27166016 212.69333984 -14.25390625 210.72265625 C-13.98623701 207.69951597 -13.98623701 207.69951597 -15.3515625 206.5625 C-15.33222656 205.42554688 -15.31289063 204.28859375 -15.29296875 203.1171875 C-15.23180477 198.13287906 -16.20193029 193.53257365 -17.2890625 188.6875 C-17.47146484 187.83414063 -17.65386719 186.98078125 -17.84179688 186.1015625 C-18.73570921 181.70959363 -18.73570921 181.70959363 -20.3515625 177.5625 C-22.0015625 177.5625 -23.6515625 177.5625 -25.3515625 177.5625 C-25.6815625 175.9125 -26.0115625 174.2625 -26.3515625 172.5625 C-25.0315625 172.2325 -23.7115625 171.9025 -22.3515625 171.5625 C-23.84886129 165.373665 -26.05690014 159.70061335 -28.8515625 154 C-29.29640991 153.0706665 -29.29640991 153.0706665 -29.75024414 152.12255859 C-31.59011665 148.32268409 -31.59011665 148.32268409 -35.3515625 146.5625 C-35.2690625 145.716875 -35.1865625 144.87125 -35.1015625 144 C-35.42693273 139.52615938 -36.95088379 137.31356048 -39.3515625 133.5625 C-39.6815625 134.8825 -40.0115625 136.2025 -40.3515625 137.5625 C-42.3315625 137.2325 -44.3115625 136.9025 -46.3515625 136.5625 C-46.3515625 135.2425 -46.3515625 133.9225 -46.3515625 132.5625 C-44.3515625 130.8125 -44.3515625 130.8125 -42.3515625 129.5625 C-49.4447063 118.9554716 -57.42913468 109.67089189 -66.3515625 100.5625 C-66.91528564 99.9761377 -67.47900879 99.38977539 -68.05981445 98.78564453 C-94.88589434 71.26647237 -132.97521043 54.94727996 -170.3515625 48.5625 C-171.01833008 48.44535645 -171.68509766 48.32821289 -172.37207031 48.20751953 C-233.71879272 37.90139268 -293.95323373 60.82683251 -338.3515625 102.5625 Z M-75.2890625 364.9375 C-76.54743144 365.94624336 -77.80652073 366.95408893 -79.06640625 367.9609375 C-79.62448975 368.41130371 -80.18257324 368.86166992 -80.75756836 369.32568359 C-82.23755588 370.47403967 -83.79292003 371.52340502 -85.3515625 372.5625 C-87.43861831 378.67979534 -87.67094581 384.46221151 -85.3515625 390.5625 C-79.47724688 399.20993594 -71.23001072 406.20844168 -63.56414795 413.23614502 C-59.05902351 417.38290182 -54.63042544 421.61107569 -50.20411682 425.84157562 C-48.65734265 427.30491799 -47.08993145 428.74289827 -45.51745605 430.17852783 C-44.57648071 431.06095154 -43.63550537 431.94337524 -42.66601562 432.85253906 C-41.83106567 433.61987366 -40.99611572 434.38720825 -40.13586426 435.17779541 C-37.88869529 438.18111821 -37.88973909 439.89344504 -38.3515625 443.5625 C-39.671875 445.0390625 -39.671875 445.0390625 -41.4765625 446.1875 C-47.33762991 450.77130832 -50.6562181 457.35858578 -51.86328125 464.65625 C-52.16939575 472.84745183 -49.90899752 479.39482811 -45.6640625 486.3125 C-38.92308933 492.87128471 -31.55762462 496.82127824 -22.0390625 496.9375 C-15.9247481 496.84000524 -11.59720515 495.62245821 -6.3515625 492.5625 C-5.2996875 492.005625 -4.2478125 491.44875 -3.1640625 490.875 C3.28162404 485.57521329 7.06458289 478.39857875 8.0625 470.1328125 C8.13210938 468.99585938 8.20171875 467.85890625 8.2734375 466.6875 C8.34820312 465.53507812 8.42296875 464.38265625 8.5 463.1953125 C8.54898438 462.32648438 8.59796875 461.45765625 8.6484375 460.5625 C9.68742187 460.47613281 10.72640625 460.38976562 11.796875 460.30078125 C22.97981083 459.23337412 32.30817162 457.17427108 40.17578125 448.48828125 C45.98343877 440.89365218 46.88458441 432.9614791 45.6484375 423.5625 C42.73950922 414.57343474 36.67107638 408.32051527 28.6484375 403.5625 C21.21716068 400.56140744 13.07914217 400.40684019 5.5234375 403.0625 C0.72102751 405.16212281 -2.64784498 408.29051002 -6.24609375 412.05078125 C-8.3515625 413.5625 -8.3515625 413.5625 -10.64558411 413.46815491 C-14.28482296 412.25015016 -16.06361144 410.31620139 -18.75268555 407.58374023 C-19.26714233 407.06665497 -19.78159912 406.5495697 -20.31164551 406.01681519 C-22.0049178 404.31059099 -23.68379188 402.59087692 -25.36328125 400.87109375 C-26.53859461 399.68323751 -27.71494555 398.49640707 -28.89228821 397.31056213 C-31.98581529 394.19045243 -35.06800337 391.05939826 -38.14709473 387.92504883 C-43.08380761 382.90201752 -48.03410943 377.89246443 -52.99085426 372.88920784 C-54.72289921 371.1366579 -56.44799563 369.37747437 -58.17253113 367.61753845 C-59.22766588 366.54875437 -60.28301791 365.48018473 -61.33862305 364.41186523 C-62.26064011 363.47334213 -63.18265717 362.53481903 -64.13261414 361.56785583 C-68.64531994 357.48953609 -71.39376132 361.78659915 -75.2890625 364.9375 Z M-337.56378174 362.57458496 C-338.48278259 363.51612427 -339.40178345 364.45766357 -340.34863281 365.42773438 C-340.85622635 365.94467361 -341.36381989 366.46161285 -341.88679504 366.99421692 C-342.99160845 368.12007498 -344.09425637 369.2480611 -345.19501495 370.37788391 C-346.93822732 372.16500492 -348.68916453 373.94418845 -350.44281006 375.72106934 C-355.42918743 380.77476383 -360.40751189 385.8361598 -365.36474609 390.91845703 C-368.39511531 394.02413881 -371.43993974 397.11499931 -374.49452972 400.19685364 C-375.65630205 401.3747388 -376.81249399 402.55815512 -377.96292877 403.74711609 C-379.57402322 405.41119132 -381.20285103 407.05578354 -382.83691406 408.69726562 C-383.75909729 409.63880493 -384.68128052 410.58034424 -385.63140869 411.55041504 C-388.84675752 413.92879342 -390.43952105 414.11293363 -394.3515625 413.5625 C-395.828125 412.2421875 -395.828125 412.2421875 -396.9765625 410.4375 C-401.56037082 404.57643259 -408.14764828 401.2578444 -415.4453125 400.05078125 C-423.63651433 399.74466675 -430.18389061 402.00506498 -437.1015625 406.25 C-443.63540742 412.96534061 -447.60973659 420.32623589 -447.7265625 429.8125 C-447.59549975 438.01328366 -445.35929201 445.71714155 -439.3515625 451.5625 C-432.17110242 457.04051831 -426.09409226 459.67141341 -416.9765625 460.1875 C-415.73132813 460.26226562 -414.48609375 460.33703125 -413.203125 460.4140625 C-411.79160156 460.48753906 -411.79160156 460.48753906 -410.3515625 460.5625 C-410.39796875 461.30113281 -410.444375 462.03976562 -410.4921875 462.80078125 C-410.83403926 472.40925755 -409.30257932 480.3600561 -403.1015625 487.9375 C-396.97945601 494.36307298 -390.68338662 497.6836554 -381.7890625 497.9375 C-373.39918255 497.87682938 -367.89072571 495.55112671 -361.5390625 490.1875 C-355.2694192 482.66392804 -351.77011833 476.37065034 -352.046875 466.23828125 C-353.03942029 457.52169766 -356.52730113 451.59402869 -362.83984375 445.6328125 C-364.3515625 443.5625 -364.3515625 443.5625 -364.21705627 441.21266174 C-363.12169292 437.85863408 -361.61297947 436.46661091 -359.01538086 434.08959961 C-358.0945018 433.23357651 -357.17362274 432.37755341 -356.22483826 431.49559021 C-355.73049223 431.04367247 -355.2361462 430.59175472 -354.72681999 430.1261425 C-352.63357856 428.20210799 -350.57801844 426.23973188 -348.51937962 424.27882481 C-344.69364829 420.63516556 -340.85624785 417.00730537 -336.94995117 413.44995117 C-322.28921897 401.0616658 -322.28921897 401.0616658 -315.50868225 384.04615784 C-315.61890515 378.23352582 -315.87740753 373.62747672 -320.13647461 369.34545898 C-323.08952271 367.00952378 -326.01263328 365.2881901 -329.3515625 363.5625 C-330.09921875 362.99660156 -330.846875 362.43070312 -331.6171875 361.84765625 C-334.41473773 359.77469673 -334.99576461 360.23889031 -337.56378174 362.57458496 Z " fill="#000000" transform="translate(457.3515625,5.4375)"/>
<path d="M0 0 C12.69822101 9.95780162 22.13418024 22.79421698 25 39 C26.66497333 56.97029295 24.02105112 72.28060958 13 87 C3.16393353 98.62444219 -9.76221875 106.665889 -25 109 C-44.29640494 110.17943958 -60.17151676 106.49670125 -75.3125 93.75 C-87.19609057 82.49486855 -93.79672174 66.49701524 -94.3125 50.25 C-93.96125063 35.75634183 -89.07911543 19.19417214 -78.66796875 8.50390625 C-78.11753906 8.00761719 -77.56710938 7.51132813 -77 7 C-76.29488281 6.34902344 -75.58976562 5.69804687 -74.86328125 5.02734375 C-54.36324809 -12.63371541 -22.52368316 -16.00802151 0 0 Z " fill="#000000" transform="translate(207,214)"/>
<path d="M0 0 C2.52893387 2.20952915 4.9379923 4.48936534 7.31640625 6.859375 C8.16332031 7.67148438 8.16332031 7.67148438 9.02734375 8.5 C19.52756787 19.5002348 23.70201067 35.20820085 23.35864258 50.06811523 C22.51581681 66.49437689 15.55363588 81.78334235 3.31640625 92.859375 C-4.57332651 99.06976705 -12.90068478 103.41000286 -22.68359375 105.859375 C-23.44414062 106.05015625 -24.2046875 106.2409375 -24.98828125 106.4375 C-42.12984457 109.1205273 -58.16833693 105.58302286 -72.56640625 95.92578125 C-84.6851219 86.72703469 -92.46069924 73.72743369 -95.68359375 58.859375 C-96.62730701 46.77073361 -96.52792082 35.10398849 -91.68359375 23.859375 C-91.35617187 23.00730469 -91.02875 22.15523437 -90.69140625 21.27734375 C-84.94007977 7.94853969 -72.69868116 -2.20188586 -59.68359375 -7.953125 C-39.83066353 -15.63161201 -16.8959004 -13.47737033 0 0 Z " fill="#000000" transform="translate(375.68359375,216.140625)"/>
<path d="M0 0 C9.03335773 4.03224012 16.29621475 16.75125613 22.26953125 24.55175781 C23.33329656 25.92105443 24.4335543 27.26183385 25.5390625 28.59765625 C29.49060205 33.44560987 29.49060205 33.44560987 29.4140625 37.04296875 C28.4765625 39.10546875 28.4765625 39.10546875 27.4765625 40.10546875 C25.171875 40.42578125 25.171875 40.42578125 22.4765625 40.10546875 C20.40625 38.41015625 20.40625 38.41015625 18.3515625 35.98046875 C17.58199219 35.08070313 16.81242187 34.1809375 16.01953125 33.25390625 C14.17288741 30.99535803 12.37559278 28.70144564 10.58984375 26.39453125 C10.10338379 25.76691895 9.61692383 25.13930664 9.11572266 24.49267578 C8.16229958 23.25319371 7.21763363 22.00691636 6.28271484 20.75341797 C3.97166146 17.71712795 2.13887476 15.40307123 -1.5234375 14.10546875 C-7.81034552 21.37732569 -14.06391715 28.6507213 -20 36.21484375 C-23.09150183 40.05147679 -23.09150183 40.05147679 -26.0234375 40.41796875 C-26.8484375 40.31484375 -27.6734375 40.21171875 -28.5234375 40.10546875 C-30.5234375 37.10546875 -30.5234375 37.10546875 -30.453125 34.7890625 C-29.23098216 31.26128044 -27.10996926 28.890153 -24.6484375 26.16796875 C-23.64610712 25.02547779 -22.64618375 23.88087149 -21.6484375 22.734375 C-21.1328125 22.14285645 -20.6171875 21.55133789 -20.0859375 20.94189453 C-17.03267613 17.35335828 -14.17772711 13.60610707 -11.31689453 9.86352539 C-3.82087495 0.15969601 -3.82087495 0.15969601 0 0 Z " fill="#000000" transform="translate(256.5234375,313.89453125)"/>
<path d="M0 0 C2.625 0.9375 2.625 0.9375 5 2 C4.67 3.65 4.34 5.3 4 7 C0.25 8.125 0.25 8.125 -2 7 C-2 5.02 -2 3.04 -2 1 C-1.34 0.67 -0.68 0.34 0 0 Z " fill="#000000" transform="translate(232,437)"/>
<path d="M0 0 C0.598125 0.226875 1.19625 0.45375 1.8125 0.6875 C2.5 2.5 2.5 2.5 2.8125 4.6875 C1.625 6.5 1.625 6.5 -0.1875 7.6875 C-2.375 7.375 -2.375 7.375 -4.1875 6.6875 C-4.875 4.875 -4.875 4.875 -5.1875 2.6875 C-3.58493056 0.24147296 -2.95482043 -0.4221172 0 0 Z " fill="#000000" transform="translate(194.1875,437.3125)"/>
<path d="M0 0 C0.598125 0.226875 1.19625 0.45375 1.8125 0.6875 C2.5 2.5 2.5 2.5 2.8125 4.6875 C1.625 6.5 1.625 6.5 -0.1875 7.6875 C-2.375 7.375 -2.375 7.375 -4.1875 6.6875 C-4.875 4.875 -4.875 4.875 -5.1875 2.6875 C-3.58493056 0.24147296 -2.95482043 -0.4221172 0 0 Z " fill="#000000" transform="translate(174.1875,437.3125)"/>
<path d="M0 0 C1.98 0 3.96 0 6 0 C6.625 1.8125 6.625 1.8125 7 4 C6.01 5.485 6.01 5.485 5 7 C3.35 6.67 1.7 6.34 0 6 C-1.125 2.25 -1.125 2.25 0 0 Z " fill="#000000" transform="translate(381,307)"/>
<path d="M0 0 C2.625 0.9375 2.625 0.9375 5 2 C4.67 3.65 4.34 5.3 4 7 C0.25 8.125 0.25 8.125 -2 7 C-2 5.02 -2 3.04 -2 1 C-1.34 0.67 -0.68 0.34 0 0 Z " fill="#000000" transform="translate(423,246)"/>
<path d="M0 0 C2.625 0.375 2.625 0.375 5 1 C5.042721 2.66611905 5.04063832 4.33382885 5 6 C4 7 4 7 1.4375 7.0625 C0.2309375 7.0315625 0.2309375 7.0315625 -1 7 C-1.625 4.625 -1.625 4.625 -2 2 C-1.34 1.34 -0.68 0.68 0 0 Z " fill="#000000" transform="translate(282,447)"/>
<path d="M0 0 C2.625 0.375 2.625 0.375 5 1 C5.042721 2.66611905 5.04063832 4.33382885 5 6 C4 7 4 7 1.4375 7.0625 C0.2309375 7.0315625 0.2309375 7.0315625 -1 7 C-1.625 4.625 -1.625 4.625 -2 2 C-1.34 1.34 -0.68 0.68 0 0 Z " fill="#000000" transform="translate(242,447)"/>
<path d="M0 0 C0.042721 1.66611905 0.04063832 3.33382885 0 5 C-1 6 -1 6 -3.5 6.125 C-6 6 -6 6 -7 5 C-7.04063832 3.33382885 -7.042721 1.66611905 -7 0 C-4.3333581 -1.33332095 -2.83319697 -0.67102033 0 0 Z " fill="#000000" transform="translate(227,448)"/>
<path d="M0 0 C1.67542976 0.28604898 3.34385343 0.61781233 5 1 C5.38218767 2.65614657 5.71395102 4.32457024 6 6 C5 7 5 7 2.5 7.125 C0 7 0 7 -1 6 C-1.125 3.5 -1.125 3.5 -1 1 C-0.67 0.67 -0.34 0.34 0 0 Z " fill="#000000" transform="translate(181,447)"/>
<path d="M0 0 C1.65 0 3.3 0 5 0 C5.66 1.32 6.32 2.64 7 4 C6.01 5.485 6.01 5.485 5 7 C3.35 6.67 1.7 6.34 0 6 C-1.125 2.25 -1.125 2.25 0 0 Z " fill="#000000" transform="translate(341,347)"/>
<path d="M0 0 C2.625 0.375 2.625 0.375 5 1 C5.042721 2.66611905 5.04063832 4.33382885 5 6 C4 7 4 7 1.4375 7.0625 C0.2309375 7.0315625 0.2309375 7.0315625 -1 7 C-1.625 4.625 -1.625 4.625 -2 2 C-1.34 1.34 -0.68 0.68 0 0 Z " fill="#000000" transform="translate(392,337)"/>
<path d="M0 0 C2.625 0.375 2.625 0.375 5 1 C5.042721 2.66611905 5.04063832 4.33382885 5 6 C4 7 4 7 1.4375 7.0625 C0.2309375 7.0315625 0.2309375 7.0315625 -1 7 C-1.625 4.625 -1.625 4.625 -2 2 C-1.34 1.34 -0.68 0.68 0 0 Z " fill="#000000" transform="translate(372,337)"/>
<path d="M0 0 C0.78375 0.04125 1.5675 0.0825 2.375 0.125 C3 1.9375 3 1.9375 3.375 4.125 C2.385 5.61 2.385 5.61 1.375 7.125 C-0.275 6.795 -1.925 6.465 -3.625 6.125 C-4.25 4.25 -4.25 4.25 -4.625 2.125 C-2.625 0.125 -2.625 0.125 0 0 Z " fill="#000000" transform="translate(364.625,326.875)"/>
<path d="M0 0 C2.625 0.375 2.625 0.375 5 1 C5.042721 2.66611905 5.04063832 4.33382885 5 6 C4 7 4 7 1.4375 7.0625 C0.2309375 7.0315625 0.2309375 7.0315625 -1 7 C-1.625 4.625 -1.625 4.625 -2 2 C-1.34 1.34 -0.68 0.68 0 0 Z " fill="#000000" transform="translate(372,317)"/>
<path d="M0 0 C1.98 0 3.96 0 6 0 C6.625 2.375 6.625 2.375 7 5 C6.34 5.66 5.68 6.32 5 7 C2.375 6.625 2.375 6.625 0 6 C0 4.02 0 2.04 0 0 Z " fill="#000000" transform="translate(401,307)"/>
<path d="M0 0 C1.98 0 3.96 0 6 0 C6.625 2.375 6.625 2.375 7 5 C6.34 5.66 5.68 6.32 5 7 C2.375 6.625 2.375 6.625 0 6 C0 4.02 0 2.04 0 0 Z " fill="#000000" transform="translate(421,287)"/>
<path d="M0 0 C0.598125 0.350625 1.19625 0.70125 1.8125 1.0625 C1.4825 2.7125 1.1525 4.3625 0.8125 6.0625 C-2.9375 7.1875 -2.9375 7.1875 -5.1875 6.0625 C-5.1875 4.0825 -5.1875 2.1025 -5.1875 0.0625 C-2.1875 -0.9375 -2.1875 -0.9375 0 0 Z " fill="#000000" transform="translate(426.1875,266.9375)"/>
<path d="M0 0 C2.625 0.9375 2.625 0.9375 5 2 C4.67 3.65 4.34 5.3 4 7 C1 8 1 8 -2 7 C-2 5.02 -2 3.04 -2 1 C-1.34 0.67 -0.68 0.34 0 0 Z " fill="#000000" transform="translate(423,226)"/>
<path d="M0 0 C0.38218767 1.65614657 0.71395102 3.32457024 1 5 C0 6 0 6 -3.0625 6.0625 C-4.5165625 6.0315625 -4.5165625 6.0315625 -6 6 C-6 4.02 -6 2.04 -6 0 C-3.50907189 -1.24546405 -2.58919267 -0.7767578 0 0 Z " fill="#000000" transform="translate(427,207)"/>
<path d="M0 0 C2.625 0.375 2.625 0.375 5 1 C5.042721 2.66611905 5.04063832 4.33382885 5 6 C4 7 4 7 1.4375 7.0625 C0.2309375 7.0315625 0.2309375 7.0315625 -1 7 C-1.625 4.625 -1.625 4.625 -2 2 C-1.34 1.34 -0.68 0.68 0 0 Z " fill="#000000" transform="translate(322,447)"/>
<path d="M0 0 C2.475 0.99 2.475 0.99 5 2 C4.67 3.65 4.34 5.3 4 7 C2.125 7.625 2.125 7.625 0 8 C-0.66 7.34 -1.32 6.68 -2 6 C-1.44444444 1.44444444 -1.44444444 1.44444444 0 0 Z " fill="#000000" transform="translate(272,437)"/>
<path d="M0 0 C0.6875 1.8125 0.6875 1.8125 1 4 C-0.1875 5.8125 -0.1875 5.8125 -2 7 C-4.1875 6.6875 -4.1875 6.6875 -6 6 C-6 4.02 -6 2.04 -6 0 C-3.50907189 -1.24546405 -2.58919267 -0.7767578 0 0 Z " fill="#000000" transform="translate(216,438)"/>
<path d="M0 0 C2.625 0.375 2.625 0.375 5 1 C5.33 1.99 5.66 2.98 6 4 C5.01 5.485 5.01 5.485 4 7 C2.35 6.67 0.7 6.34 -1 6 C-1.625 4.125 -1.625 4.125 -2 2 C-1.34 1.34 -0.68 0.68 0 0 Z " fill="#000000" transform="translate(342,427)"/>
<path d="M0 0 C2.0625 0.4375 2.0625 0.4375 4 1 C4.33 2.65 4.66 4.3 5 6 C3.02 6.99 3.02 6.99 1 8 C0.01 7.34 -0.98 6.68 -2 6 C-1.125 1.125 -1.125 1.125 0 0 Z " fill="#000000" transform="translate(352,417)"/>
<path d="M0 0 C2.0625 0.4375 2.0625 0.4375 4 1 C4.33 2.65 4.66 4.3 5 6 C3.02 6.99 3.02 6.99 1 8 C0.01 7.34 -0.98 6.68 -2 6 C-1.125 1.125 -1.125 1.125 0 0 Z " fill="#000000" transform="translate(332,417)"/>
<path d="M0 0 C2.625 0.375 2.625 0.375 5 1 C5.33 1.99 5.66 2.98 6 4 C5.01 5.485 5.01 5.485 4 7 C2.35 6.67 0.7 6.34 -1 6 C-1.625 4.125 -1.625 4.125 -2 2 C-1.34 1.34 -0.68 0.68 0 0 Z " fill="#000000" transform="translate(342,407)"/>
<path d="M0 0 C2.625 0.375 2.625 0.375 5 1 C5.33 1.99 5.66 2.98 6 4 C5.01 5.485 5.01 5.485 4 7 C2.35 6.67 0.7 6.34 -1 6 C-1.625 4.125 -1.625 4.125 -2 2 C-1.34 1.34 -0.68 0.68 0 0 Z " fill="#000000" transform="translate(342,387)"/>
<path d="M0 0 C2.625 0.375 2.625 0.375 5 1 C5.33 1.99 5.66 2.98 6 4 C5.01 5.485 5.01 5.485 4 7 C2.35 6.67 0.7 6.34 -1 6 C-1.625 4.125 -1.625 4.125 -2 2 C-1.34 1.34 -0.68 0.68 0 0 Z " fill="#000000" transform="translate(342,367)"/>
<path d="M0 0 C2.625 0.375 2.625 0.375 5 1 C5.042721 2.66611905 5.04063832 4.33382885 5 6 C4 7 4 7 1.4375 7.0625 C0.2309375 7.0315625 0.2309375 7.0315625 -1 7 C-1.625 4.625 -1.625 4.625 -2 2 C-1.34 1.34 -0.68 0.68 0 0 Z " fill="#000000" transform="translate(352,357)"/>
<path d="M0 0 C2.625 0.375 2.625 0.375 5 1 C5.042721 2.66611905 5.04063832 4.33382885 5 6 C4 7 4 7 1.4375 7.0625 C0.2309375 7.0315625 0.2309375 7.0315625 -1 7 C-1.625 4.625 -1.625 4.625 -2 2 C-1.34 1.34 -0.68 0.68 0 0 Z " fill="#000000" transform="translate(352,337)"/>
<path d="M0 0 C2.625 -0.1875 2.625 -0.1875 5 0 C5.625 1.8125 5.625 1.8125 6 4 C5.01 5.485 5.01 5.485 4 7 C2.35 6.67 0.7 6.34 -1 6 C-1.33 5.01 -1.66 4.02 -2 3 C-1.34 2.01 -0.68 1.02 0 0 Z " fill="#000000" transform="translate(382,327)"/>
<path d="M0 0 C2.625 0.375 2.625 0.375 5 1 C5.042721 2.66611905 5.04063832 4.33382885 5 6 C4 7 4 7 1.4375 7.0625 C0.2309375 7.0315625 0.2309375 7.0315625 -1 7 C-1.625 4.625 -1.625 4.625 -2 2 C-1.34 1.34 -0.68 0.68 0 0 Z " fill="#000000" transform="translate(392,317)"/>
<path d="M0 0 C2.625 0.375 2.625 0.375 5 1 C5.042721 2.66611905 5.04063832 4.33382885 5 6 C4 7 4 7 1.4375 7.0625 C0.2309375 7.0315625 0.2309375 7.0315625 -1 7 C-1.625 4.625 -1.625 4.625 -2 2 C-1.34 1.34 -0.68 0.68 0 0 Z " fill="#000000" transform="translate(392,297)"/>
<path d="M0 0 C1.98 0 3.96 0 6 0 C6.625 2.375 6.625 2.375 7 5 C6.34 5.66 5.68 6.32 5 7 C2.375 6.625 2.375 6.625 0 6 C0 4.02 0 2.04 0 0 Z " fill="#000000" transform="translate(401,287)"/>
<path d="M0 0 C1.66611905 -0.042721 3.33382885 -0.04063832 5 0 C6 1 6 1 6.0625 3.5625 C6.041875 4.366875 6.02125 5.17125 6 6 C3.625 6.625 3.625 6.625 1 7 C0.34 6.34 -0.32 5.68 -1 5 C-0.625 2.375 -0.625 2.375 0 0 Z " fill="#000000" transform="translate(411,257)"/>
<path d="M0 0 C1.66611905 -0.042721 3.33382885 -0.04063832 5 0 C6 1 6 1 6.0625 3.5625 C6.041875 4.366875 6.02125 5.17125 6 6 C3.625 6.625 3.625 6.625 1 7 C0.34 6.34 -0.32 5.68 -1 5 C-0.625 2.375 -0.625 2.375 0 0 Z " fill="#000000" transform="translate(431,237)"/>
<path d="M0 0 C1.66611905 -0.042721 3.33382885 -0.04063832 5 0 C6 1 6 1 6.0625 3.5625 C6.041875 4.366875 6.02125 5.17125 6 6 C3.625 6.625 3.625 6.625 1 7 C0.34 6.34 -0.32 5.68 -1 5 C-0.625 2.375 -0.625 2.375 0 0 Z " fill="#000000" transform="translate(431,217)"/>
<path d="M0 0 C1.66611905 -0.042721 3.33382885 -0.04063832 5 0 C6 1 6 1 6.0625 3.5625 C6.041875 4.366875 6.02125 5.17125 6 6 C3.625 6.625 3.625 6.625 1 7 C0.34 6.34 -0.32 5.68 -1 5 C-0.625 2.375 -0.625 2.375 0 0 Z " fill="#000000" transform="translate(431,197)"/>
<path d="M0 0 C1.67542976 0.28604898 3.34385343 0.61781233 5 1 C6.125 4.75 6.125 4.75 5 7 C3.33388095 7.042721 1.66617115 7.04063832 0 7 C-1 6 -1 6 -1.125 3.5 C-1 1 -1 1 0 0 Z " fill="#000000" transform="translate(422,186)"/>
<path d="M0 0 C1.67542976 0.28604898 3.34385343 0.61781233 5 1 C6.125 4.75 6.125 4.75 5 7 C3.33388095 7.042721 1.66617115 7.04063832 0 7 C-1 6 -1 6 -1.125 3.5 C-1 1 -1 1 0 0 Z " fill="#000000" transform="translate(422,166)"/>
<path d="M0 0 C2.475 0.99 2.475 0.99 5 2 C4.67 3.65 4.34 5.3 4 7 C3.01 7.33 2.02 7.66 1 8 C0.01 7.34 -0.98 6.68 -2 6 C-1.125 1.125 -1.125 1.125 0 0 Z " fill="#000000" transform="translate(292,437)"/>
<path d="M0 0 C1.67542976 0.28604898 3.34385343 0.61781233 5 1 C5 2.65 5 4.3 5 6 C2.625 6.625 2.625 6.625 0 7 C-0.66 6.34 -1.32 5.68 -2 5 C-1.46428571 1.46428571 -1.46428571 1.46428571 0 0 Z " fill="#000000" transform="translate(322,427)"/>
<path d="M0 0 C2.125 0.375 2.125 0.375 4 1 C4.38218767 2.65614657 4.71395102 4.32457024 5 6 C4 7 4 7 1.4375 7.0625 C0.2309375 7.0315625 0.2309375 7.0315625 -1 7 C-1.625 4.625 -1.625 4.625 -2 2 C-1.34 1.34 -0.68 0.68 0 0 Z " fill="#000000" transform="translate(352,397)"/>
<path d="M0 0 C2.125 0.375 2.125 0.375 4 1 C4.38218767 2.65614657 4.71395102 4.32457024 5 6 C4 7 4 7 1.4375 7.0625 C0.2309375 7.0315625 0.2309375 7.0315625 -1 7 C-1.625 4.625 -1.625 4.625 -2 2 C-1.34 1.34 -0.68 0.68 0 0 Z " fill="#000000" transform="translate(352,377)"/>
<path d="M0 0 C1.65 0.33 3.3 0.66 5 1 C5.33 1.99 5.66 2.98 6 4 C5.01 5.485 5.01 5.485 4 7 C2.35 6.67 0.7 6.34 -1 6 C-1.33 5.01 -1.66 4.02 -2 3 C-1.34 2.01 -0.68 1.02 0 0 Z " fill="#000000" transform="translate(382,347)"/>
<path d="M0 0 C2.625 0.375 2.625 0.375 5 1 C5.33 1.99 5.66 2.98 6 4 C5.01 5.485 5.01 5.485 4 7 C2.35 6.67 0.7 6.34 -1 6 C-1.625 4.125 -1.625 4.125 -2 2 C-1.34 1.34 -0.68 0.68 0 0 Z " fill="#000000" transform="translate(362,347)"/>
<path d="M0 0 C1.67542976 0.28604898 3.34385343 0.61781233 5 1 C5 2.65 5 4.3 5 6 C2.625 6.625 2.625 6.625 0 7 C-0.66 6.34 -1.32 5.68 -2 5 C-1.46428571 1.46428571 -1.46428571 1.46428571 0 0 Z " fill="#000000" transform="translate(412,297)"/>
<path d="M0 0 C1.67542976 0.28604898 3.34385343 0.61781233 5 1 C5 2.65 5 4.3 5 6 C2.625 6.625 2.625 6.625 0 7 C-0.66 6.34 -1.32 5.68 -2 5 C-1.46428571 1.46428571 -1.46428571 1.46428571 0 0 Z " fill="#000000" transform="translate(412,277)"/>
<path d="M0 0 C1.67542976 0.28604898 3.34385343 0.61781233 5 1 C5 2.65 5 4.3 5 6 C2.625 6.625 2.625 6.625 0 7 C-0.66 6.34 -1.32 5.68 -2 5 C-1.46428571 1.46428571 -1.46428571 1.46428571 0 0 Z " fill="#000000" transform="translate(432,257)"/>
<path d="M0 0 C2.125 0.9375 2.125 0.9375 4 2 C3.67 3.65 3.34 5.3 3 7 C2.01 7.33 1.02 7.66 0 8 C-0.99 7.34 -1.98 6.68 -3 6 C-2.625 3.5625 -2.625 3.5625 -2 1 C-1.34 0.67 -0.68 0.34 0 0 Z " fill="#000000" transform="translate(333,437)"/>
<path d="M0 0 C0.66 0 1.32 0 2 0 C2.33 1.65 2.66 3.3 3 5 C1.35 5.66 -0.3 6.32 -2 7 C-2.33 6.34 -2.66 5.68 -3 5 C-1.6875 2.375 -1.6875 2.375 0 0 Z " fill="#000000" transform="translate(405,267)"/>
<path d="M0 0 C2.475 0.495 2.475 0.495 5 1 C5.33 2.32 5.66 3.64 6 5 C5.01 5.66 4.02 6.32 3 7 C2.01 4.69 1.02 2.38 0 0 Z " fill="#000000" transform="translate(402,126)"/>
<path d="M0 0 C0.99 0.33 1.98 0.66 3 1 C3 2.65 3 4.3 3 6 C1.68 6.33 0.36 6.66 -1 7 C-0.67 4.69 -0.34 2.38 0 0 Z " fill="#000000" transform="translate(414,237)"/>
</svg>
